<?xml version="1.0" encoding="utf-8"?>
<!-- Generator: Adobe Illustrator 22.1.0, SVG Export Plug-In . SVG Version: 6.00 Build 0)  -->
<svg version="1.1" xmlns="http://www.w3.org/2000/svg" xmlns:xlink="http://www.w3.org/1999/xlink" x="0px" y="0px"
	 viewBox="0 0 434.9 434.9" style="enable-background:new 0 0 434.9 434.9;" xml:space="preserve">
<style type="text/css">
	.st0{fill:#FFFFFF;}
</style>
<g id="Layer_1">
	<path class="st0" d="M212.4,401.5V430c0,6.4,10,6.4,10,0v-28.5C222.4,395.1,212.4,395.1,212.4,401.5z"/>
	<path class="st0" d="M121.9,374.6l-15.1,24.5c-3.4,5.5,5.3,10.5,8.6,5l15.1-24.5C134,374.1,125.3,369.1,121.9,374.6z"/>
	<path class="st0" d="M55.5,304.7l-24.8,14.7c-5.5,3.3-0.5,11.9,5,8.6l24.8-14.7C66.1,310,61.1,301.4,55.5,304.7z"/>
	<path class="st0" d="M32.9,212.4H4.8c-6.4,0-6.4,10,0,10h28.1C39.4,222.4,39.4,212.4,32.9,212.4z"/>
	<path class="st0" d="M60.9,120.8l-25.1-14c-5.6-3.1-10.7,5.5-5,8.6l25.1,14C61.5,132.5,66.5,123.9,60.9,120.8z"/>
	<path class="st0" d="M129.1,55l-13.7-24.2c-3.2-5.6-11.8-0.6-8.6,5L120.5,60C123.7,65.6,132.3,60.6,129.1,55z"/>
	<path class="st0" d="M222.4,33V4.8c0-6.4-10-6.4-10,0V33C212.4,39.4,222.4,39.4,222.4,33z"/>
	<path class="st0" d="M314.6,60.8l13.5-25c3.1-5.7-5.6-10.7-8.6-5l-13.5,25C302.9,61.4,311.5,66.5,314.6,60.8z"/>
	<path class="st0" d="M379.4,130.2l24.8-14.7c5.5-3.3,0.5-11.9-5-8.6l-24.8,14.7C368.8,124.9,373.8,133.5,379.4,130.2z"/>
	<path class="st0" d="M401.4,222.4H430c6.4,0,6.4-10,0-10h-28.6C395,212.4,395,222.4,401.4,222.4z"/>
	<path class="st0" d="M374.7,314.1l24.4,13.9c5.6,3.2,10.6-5.4,5-8.6l-24.4-13.9C374.1,302.3,369.1,310.9,374.7,314.1z"/>
	<path class="st0" d="M305.2,378.8l14.2,25.3c3.2,5.6,11.8,0.6,8.6-5l-14.2-25.3C310.7,368.2,302,373.2,305.2,378.8z"/>
	<path class="st0" d="M218.6,204.7h-0.7c-6.8,0-12.5,5.7-12.5,12.5s5.7,12.5,12.5,12.5h0.7c6.8,0,12.5-5.7,12.5-12.5
		S225.4,204.7,218.6,204.7z"/>
	<path class="st0" d="M220.3,217.9V105.6c0-3.2-5-3.2-5,0v112.3C215.3,221.1,220.3,221.1,220.3,217.9z"/>
	<path class="st0" d="M239,190.6L144,77.1l-7.6-9.1c-2.1-2.5-5.9,0.8-3.8,3.2l95,113.5l7.6,9.1C237.3,196.3,241.1,193.1,239,190.6
		L239,190.6z"/>
</g>
<g id="Layer_2">
	<path class="st0" d="M307.1,187.1c-17.3-35.4-35.9-37.9-53.2-29.5c-5.2,2.6-9.7,5.8-13,10.2h-46.2c-3.3-4.3-7.8-7.6-13-10.2
		c-17.3-8.4-35.8-6-53.2,29.5c-17.3,35.4-26.9,90.4-9.6,98.9c12,5.9,33.8-12.3,51.8-35.8h94.2c18,23.5,39.8,41.7,51.8,35.8
		C333.9,277.5,324.4,222.6,307.1,187.1z M190.5,209.3c0,1.4-1.2,2.6-2.7,2.6h-12.7v13c0,1.4-1.2,2.6-2.6,2.6H168h-4.5
		c-1.5,0-2.6-1.2-2.6-2.6v-13h-12.7c-1.5,0-2.7-1.2-2.7-2.6v-8.8c0-1.4,1.2-2.6,2.7-2.6h12.7v-13c0-1.4,1.2-2.6,2.6-2.6h4.5h4.5
		c1.5,0,2.6,1.2,2.6,2.6v13h12.7c1.5,0,2.7,1.2,2.7,2.6L190.5,209.3L190.5,209.3z M272.5,187.1c0,4.5-3.6,8.1-8.1,8.1
		c-4.5,0-8.1-3.6-8.1-8.1c0-4.5,3.6-8.1,8.1-8.1C268.9,179,272.5,182.6,272.5,187.1z M247.7,211.9c-4.5,0-8.1-3.6-8.1-8.1
		c0-4.5,3.6-8.1,8.1-8.1c4.5,0,8.1,3.6,8.1,8.1C255.8,208.3,252.2,211.9,247.7,211.9z M281.1,211.9c-4.5,0-8.1-3.6-8.1-8.1
		c0-4.5,3.6-8.1,8.1-8.1c4.5,0,8.1,3.6,8.1,8.1C289.2,208.3,285.6,211.9,281.1,211.9z M264.4,228.6c-4.5,0-8.1-3.6-8.1-8.1
		c0-4.5,3.6-8.1,8.1-8.1c4.5,0,8.1,3.6,8.1,8.1C272.5,225,268.9,228.6,264.4,228.6z"/>
</g>
</svg>
